:FULLY-SPECIFIED
:FORCE-ALL-JOINTS-BE-3DOF
:DEGREES
243
root 9.24816 16.3788 -2.55447 9.53136 -5.11814 -2.05636
lfemur -43.2697 8.73432 -23.117
ltibia 40.3709 0 0
lfoot -8.74986 5.91514 0
ltoes -2.25795 0 0
rfemur 9.42519 1.70827 20.8038
rtibia 28.9426 0 0
rfoot 6.87886 4.85452 0
rtoes -14.7782 0 0
lowerback -6.35816 2.05053 -0.395812
upperback -2.83648 2.72414 1.91074
thorax 0.526712 1.38041 2.36693
lowerneck -18.2732 -5.93199 -14.0038
upperneck 17.2169 -7.48335 14.6311
head 9.57091 -2.92989 6.43615
lclavicle -1.50133e-14 -4.71265e-15 0
lhumerus -46.1262 -5.29184 88.9914
lradius 20.7016 0 0
lwrist -5.69488 0 0
lhand -7.82843 -22.7069 0
lfingers 7.12502 0 0
lthumb 18.0735 6.46784 0
rclavicle -1.50133e-14 -4.71265e-15 0
rhumerus -45.7262 8.52132 -86.2352
rradius 41.704 0 0
rwrist -22.4302 0 0
rhand -29.5463 -23.1625 0
rfingers 7.12502 0 0
rthumb -2.87927 -53.1196 0
244
root 9.27502 16.3738 -2.39094 9.58911 -5.30221 -1.99225
lfemur -43.2958 8.93957 -23.3164
ltibia 40.803 0 0
lfoot -8.58279 5.765 0
ltoes -1.86007 0 0
rfemur 9.61981 1.62376 20.5414
rtibia 29.4056 0 0
rfoot 7.54968 4.86164 0
rtoes -14.9274 0 0
lowerback -6.36494 2.05135 -0.465858
upperback -2.89478 2.73158 1.86979
thorax 0.468951 1.38449 2.36316
lowerneck -18.3233 -5.9119 -13.9911
upperneck 17.2819 -7.45679 14.6197
head 9.59666 -2.91555 6.43547
lclavicle -1.61255e-14 -4.92598e-15 0
lhumerus -46.0342 -5.15964 88.8003
lradius 20.5153 0 0
lwrist -6.09668 0 0
lhand -7.71175 -22.6726 0
lfingers 7.12502 0 0
lthumb 18.1859 6.49295 0
rclavicle -1.61255e-14 -4.92598e-15 0
rhumerus -45.9969 8.45186 -86.3764
rradius 41.4183 0 0
rwrist -22.3051 0 0
rhand -29.4477 -23.0034 0
rfingers 7.12502 0 0
rthumb -2.78404 -52.9625 0
245
root 9.30188 16.3687 -2.22741 9.64687 -5.48628 -1.92814
lfemur -43.3218 9.14482 -23.5159
ltibia 41.2351 0 0
lfoot -8.41572 5.61486 0
ltoes -1.46218 0 0
rfemur 9.81444 1.53926 20.2789
rtibia 29.8685 0 0
rfoot 8.22049 4.86876 0
rtoes -15.0766 0 0
lowerback -6.37172 2.05216 -0.535904
upperback -2.95308 2.73902 1.82883
thorax 0.41119 1.38857 2.35938
lowerneck -18.3734 -5.8918 -13.9784
upperneck 17.347 -7.43022 14.6082
head 9.62241 -2.90121 6.43478
lclavicle -1.72378e-14 -5.13931e-15 0
lhumerus -45.9421 -5.02744 88.6092
lradius 20.3291 0 0
lwrist -6.49848 0 0
lhand -7.59508 -22.6384 0
lfingers 7.12502 0 0
lthumb 18.2982 6.51806 0
rclavicle -1.72378e-14 -5.13931e-15 0
rhumerus -46.2675 8.38239 -86.5176
rradius 41.1325 0 0
rwrist -22.18 0 0
rhand -29.3491 -22.8443 0
rfingers 7.12502 0 0
rthumb -2.6888 -52.8054 0
246
root 9.32874 16.3637 -2.06389 9.70462 -5.67036 -1.86403
lfemur -43.3479 9.35008 -23.7154
ltibia 41.6671 0 0
lfoot -8.24865 5.46472 0
ltoes -1.06429 0 0
rfemur 10.0091 1.45475 20.0165
rtibia 30.3315 0 0
rfoot 8.89131 4.87587 0
rtoes -15.2259 0 0
lowerback -6.37851 2.05297 -0.605951
upperback -3.01137 2.74647 1.78788
thorax 0.353428 1.39266 2.35561
lowerneck -18.4236 -5.87171 -13.9657
upperneck 17.412 -7.40366 14.5968
head 9.64817 -2.88686 6.4341
lclavicle -1.835e-14 -5.35264e-15 0
lhumerus -45.8501 -4.89524 88.418
lradius 20.1428 0 0
lwrist -6.90027 0 0
lhand -7.4784 -22.6041 0
lfingers 7.12502 0 0
lthumb 18.4106 6.54316 0
rclavicle -1.835e-14 -5.35264e-15 0
rhumerus -46.5382 8.31293 -86.6588
rradius 40.8468 0 0
rwrist -22.0548 0 0
rhand -29.2504 -22.6852 0
rfingers 7.12502 0 0
rthumb -2.59357 -52.6483 0
247
root 9.3556 16.3586 -1.90036 9.76238 -5.85443 -1.79992
lfemur -43.374 9.55533 -23.9149
ltibia 42.0992 0 0
lfoot -8.08158 5.31458 0
ltoes -0.666402 0 0
rfemur 10.2037 1.37025 19.7541
rtibia 30.7944 0 0
rfoot 9.56213 4.88299 0
rtoes -15.3751 0 0
lowerback -6.38529 2.05378 -0.675997
upperback -3.06967 2.75391 1.74692
thorax 0.295667 1.39674 2.35183
lowerneck -18.4737 -5.85161 -13.953
upperneck 17.477 -7.37709 14.5853
head 9.67392 -2.87252 6.43342
lclavicle -1.94623e-14 -5.56597e-15 0
lhumerus -45.758 -4.76304 88.2269
lradius 19.9566 0 0
lwrist -7.30207 0 0
lhand -7.36173 -22.5698 0
lfingers 7.12502 0 0
lthumb 18.5229 6.56827 0
rclavicle -1.94623e-14 -5.56597e-15 0
rhumerus -46.8088 8.24347 -86.8
rradius 40.5611 0 0
rwrist -21.9297 0 0
rhand -29.1518 -22.5261 0
rfingers 7.12502 0 0
rthumb -2.49833 -52.4912 0
248
root 9.37276 16.371 -1.77047 9.6534 -5.69636 -1.6775
lfemur -42.4592 9.44604 -24.0504
ltibia 41.5966 0 0
lfoot -8.35344 5.30097 0
ltoes -0.769308 0 0
rfemur 9.08405 1.32698 19.6657
rtibia 31.1975 0 0
rfoot 8.81628 4.4608 0
rtoes -15.5851 0 0
lowerback -6.3574 1.92233 -0.766755
upperback -2.99797 2.58314 1.75566
thorax 0.368566 1.30895 2.39913
lowerneck -18.5544 -5.8003 -13.8925
upperneck 17.6073 -7.30517 14.5036
head 9.72035 -2.84159 6.40851
lclavicle -1.8224e-14 -5.19749e-15 0
lhumerus -44.951 -5.09393 88.1782
lradius 20.1038 0 0
lwrist -7.04534 0 0
lhand -7.57628 -22.6175 0
lfingers 7.12502 0 0
lthumb 18.3162 6.53521 0
rclavicle -1.8224e-14 -5.19749e-15 0
rhumerus -46.8144 8.22735 -86.704
rradius 40.5723 0 0
rwrist -21.9594 0 0
rhand -29.1655 -22.4978 0
rfingers 7.12502 0 0
rthumb -2.51154 -52.4627 0
249
root 9.38992 16.3834 -1.64057 9.54441 -5.53829 -1.55508
lfemur -41.5445 9.33675 -24.1859
ltibia 41.0939 0 0
lfoot -8.6253 5.28736 0
ltoes -0.872213 0 0
rfemur 7.9644 1.28372 19.5773
rtibia 31.6005 0 0
rfoot 8.07044 4.03861 0
rtoes -15.7951 0 0
lowerback -6.32952 1.79088 -0.857513
upperback -2.92627 2.41236 1.76439
thorax 0.441466 1.22115 2.44644
lowerneck -18.6351 -5.74899 -13.8319
upperneck 17.7376 -7.23326 14.4218
head 9.76679 -2.81065 6.3836
lclavicle -1.69857e-14 -4.82901e-15 0
lhumerus -44.144 -5.42482 88.1295
lradius 20.2511 0 0
lwrist -6.78861 0 0
lhand -7.79084 -22.6653 0
lfingers 7.12502 0 0
lthumb 18.1095 6.50215 0
rclavicle -1.69857e-14 -4.82901e-15 0
rhumerus -46.8199 8.21123 -86.6081
rradius 40.5834 0 0
rwrist -21.989 0 0
rhand -29.1792 -22.4695 0
rfingers 7.12502 0 0
rthumb -2.52476 -52.4342 0
250
root 9.40708 16.3958 -1.51068 9.43543 -5.38022 -1.43266
lfemur -40.6297 9.22745 -24.3214
ltibia 40.5913 0 0
lfoot -8.89716 5.27376 0
ltoes -0.975119 0 0
rfemur 6.84475 1.24045 19.4889
rtibia 32.0036 0 0
rfoot 7.32459 3.61641 0
rtoes -16.0051 0 0
lowerback -6.30163 1.65943 -0.948271
upperback -2.85458 2.24159 1.77313
thorax 0.514365 1.13336 2.49374
lowerneck -18.7159 -5.69767 -13.7714
upperneck 17.868 -7.16134 14.3401
head 9.81322 -2.77972 6.35869
lclavicle -1.57474e-14 -4.46053e-15 0
lhumerus -43.337 -5.75571 88.0808
lradius 20.3983 0 0
lwrist -6.53188 0 0
lhand -8.00539 -22.713 0
lfingers 7.12502 0 0
lthumb 17.9027 6.46908 0
rclavicle -1.57474e-14 -4.46053e-15 0
rhumerus -46.8255 8.19511 -86.5121
rradius 40.5946 0 0
rwrist -22.0187 0 0
rhand -29.1928 -22.4411 0
rfingers 7.12502 0 0
rthumb -2.53797 -52.4057 0
251
root 9.42424 16.4082 -1.38078 9.32645 -5.22214 -1.31024
lfemur -39.7149 9.11816 -24.4569
ltibia 40.0886 0 0
lfoot -9.16903 5.26015 0
ltoes -1.07802 0 0
rfemur 5.7251 1.19719 19.4005
rtibia 32.4067 0 0
rfoot 6.57874 3.19422 0
rtoes -16.2151 0 0
lowerback -6.27375 1.52798 -1.03903
upperback -2.78288 2.07081 1.78186
thorax 0.587264 1.04557 2.54104
lowerneck -18.7966 -5.64636 -13.7109
upperneck 17.9983 -7.08942 14.2583
head 9.85965 -2.74879 6.33378
lclavicle -1.4509e-14 -4.09205e-15 0
lhumerus -42.53 -6.0866 88.0322
lradius 20.5456 0 0
lwrist -6.27515 0 0
lhand -8.21994 -22.7608 0
lfingers 7.12502 0 0
lthumb 17.696 6.43602 0
rclavicle -1.4509e-14 -4.09205e-15 0
rhumerus -46.8311 8.179 -86.4162
rradius 40.6058 0 0
rwrist -22.0483 0 0
rhand -29.2065 -22.4128 0
rfingers 7.12502 0 0
rthumb -2.55118 -52.3772 0
252
root 9.4414 16.4207 -1.25089 9.21747 -5.06407 -1.18782
lfemur -38.8001 9.00887 -24.5924
ltibia 39.586 0 0
lfoot -9.44089 5.24654 0
ltoes -1.18093 0 0
rfemur 4.60544 1.15392 19.3121
rtibia 32.8097 0 0
rfoot 5.83289 2.77203 0
rtoes -16.4252 0 0
lowerback -6.24586 1.39653 -1.12979
upperback -2.71118 1.90004 1.7906
thorax 0.660164 0.957775 2.58834
lowerneck -18.8773 -5.59505 -13.6503
upperneck 18.1286 -7.0175 14.1766
head 9.90609 -2.71786 6.30887
lclavicle -1.32707e-14 -3.72358e-15 0
lhumerus -41.723 -6.41749 87.9835
lradius 20.6928 0 0
lwrist -6.01842 0 0
lhand -8.43449 -22.8085 0
lfingers 7.12502 0 0
lthumb 17.4893 6.40296 0
rclavicle -1.32707e-14 -3.72358e-15 0
rhumerus -46.8367 8.16288 -86.3202
rradius 40.6169 0 0
rwrist -22.078 0 0
rhand -29.2202 -22.3845 0
rfingers 7.12502 0 0
rthumb -2.56439 -52.3487 0
253
root 9.45857 16.4331 -1.121 9.10848 -4.906 -1.0654
lfemur -37.8854 8.89958 -24.7279
ltibia 39.0833 0 0
lfoot -9.71275 5.23293 0
ltoes -1.28384 0 0
rfemur 3.48579 1.11065 19.2237
rtibia 33.2128 0 0
rfoot 5.08705 2.34984 0
rtoes -16.6352 0 0
lowerback -6.21798 1.26508 -1.22054
upperback -2.63948 1.72926 1.79933
thorax 0.733063 0.869982 2.63565
lowerneck -18.958 -5.54374 -13.5898
upperneck 18.2589 -6.94559 14.0949
head 9.95252 -2.68692 6.28396
lclavicle -1.20324e-14 -3.3551e-15 0
lhumerus -40.916 -6.74838 87.9348
lradius 20.8401 0 0
lwrist -5.7617 0 0
lhand -8.64905 -22.8563 0
lfingers 7.12502 0 0
lthumb 17.2826 6.3699 0
rclavicle -1.20324e-14 -3.3551e-15 0
rhumerus -46.8422 8.14676 -86.2243
rradius 40.6281 0 0
rwrist -22.1076 0 0
rhand -29.2339 -22.3562 0
rfingers 7.12502 0 0
rthumb -2.57761 -52.3202 0
254
root 9.47573 16.4455 -0.991101 8.9995 -4.74793 -0.942975
lfemur -36.9706 8.79029 -24.8634
ltibia 38.5807 0 0
lfoot -9.98461 5.21933 0
ltoes -1.38674 0 0
rfemur 2.36614 1.06739 19.1352
rtibia 33.6158 0 0
rfoot 4.3412 1.92764 0
rtoes -16.8452 0 0
lowerback -6.19009 1.13362 -1.3113
upperback -2.56778 1.55849 1.80807
thorax 0.805962 0.78219 2.68295
lowerneck -19.0388 -5.49243 -13.5292
upperneck 18.3893 -6.87367 14.0131
head 9.99896 -2.65599 6.25905
lclavicle -1.07941e-14 -2.98662e-15 0
lhumerus -40.109 -7.07926 87.8861
lradius 20.9873 0 0
lwrist -5.50497 0 0
lhand -8.8636 -22.904 0
lfingers 7.12502 0 0
lthumb 17.0759 6.33684 0
rclavicle -1.07941e-14 -2.98662e-15 0
rhumerus -46.8478 8.13064 -86.1283
rradius 40.6393 0 0
rwrist -22.1373 0 0
rhand -29.2476 -22.3278 0
rfingers 7.12502 0 0
rthumb -2.59082 -52.2918 0
255
root 9.49289 16.4579 -0.861207 8.89052 -4.58986 -0.820554
lfemur -36.0558 8.681 -24.9989
ltibia 38.078 0 0
lfoot -10.2565 5.20572 0
ltoes -1.48965 0 0
rfemur 1.24649 1.02412 19.0468
rtibia 34.0189 0 0
rfoot 3.59535 1.50545 0
rtoes -17.0552 0 0
lowerback -6.16221 1.00217 -1.40206
upperback -2.49609 1.38771 1.8168
thorax 0.878862 0.694397 2.73025
lowerneck -19.1195 -5.44112 -13.4687
upperneck 18.5196 -6.80175 13.9314
head 10.0454 -2.62506 6.23414
lclavicle -9.55578e-15 -2.61814e-15 0
lhumerus -39.302 -7.41015 87.8374
lradius 21.1346 0 0
lwrist -5.24824 0 0
lhand -9.07815 -22.9518 0
lfingers 7.12502 0 0
lthumb 16.8691 6.30377 0
rclavicle -9.55578e-15 -2.61814e-15 0
rhumerus -46.8534 8.11452 -86.0324
rradius 40.6504 0 0
rwrist -22.1669 0 0
rhand -29.2613 -22.2995 0
rfingers 7.12502 0 0
rthumb -2.60403 -52.2633 0
256
root 9.51005 16.4703 -0.731313 8.78153 -4.43179 -0.698133
lfemur -35.141 8.5717 -25.1344
ltibia 37.5754 0 0
lfoot -10.5283 5.19211 0
ltoes -1.59255 0 0
rfemur 0.126839 0.980857 18.9584
rtibia 34.422 0 0
rfoot 2.84951 1.08326 0
rtoes -17.2652 0 0
lowerback -6.13432 0.870723 -1.49282
upperback -2.42439 1.21694 1.82554
thorax 0.951761 0.606604 2.77755
lowerneck -19.2002 -5.3898 -13.4082
upperneck 18.6499 -6.72984 13.8496
head 10.0918 -2.59412 6.20923
lclavicle -8.31747e-15 -2.24966e-15 0
lhumerus -38.495 -7.74104 87.7887
lradius 21.2818 0 0
lwrist -4.99151 0 0
lhand -9.29271 -22.9995 0
lfingers 7.12502 0 0
lthumb 16.6624 6.27071 0
rclavicle -8.31747e-15 -2.24966e-15 0
rhumerus -46.8589 8.0984 -85.9364
rradius 40.6616 0 0
rwrist -22.1966 0 0
rhand -29.2749 -22.2712 0
rfingers 7.12502 0 0
rthumb -2.61724 -52.2348 0
